<svg xmlns="http://www.w3.org/2000/svg" xmlns:xlink="http://www.w3.org/1999/xlink" width="500" zoomAndPan="magnify" viewBox="0 0 375 374.999991" height="500" preserveAspectRatio="xMidYMid meet" version="1.2"><defs><clipPath id="7926484e99"><path d="M 0 198.675781 L 286 198.675781 L 286 370.9375 L 0 370.9375 Z M 0 198.675781 "/></clipPath><clipPath id="a1ed92ab54"><path d="M 90.976562 198.675781 L 285.820312 370.9375 L -103.863281 370.9375 Z M 90.976562 198.675781 "/></clipPath><clipPath id="33eabc8e8f"><path d="M 0 198.675781 L 286 198.675781 L 286 371 L 0 371 Z M 0 198.675781 "/></clipPath><clipPath id="33eb6279d8"><path d="M 90.972656 198.675781 L 285.804688 370.929688 L -103.863281 370.929688 Z M 90.972656 198.675781 "/></clipPath><clipPath id="322a2f729e"><path d="M 135.667969 156.121094 L 375 156.121094 L 375 370.9375 L 135.667969 370.9375 Z M 135.667969 156.121094 "/></clipPath><clipPath id="1a6fb67186"><path d="M 275.804688 156.121094 L 415.941406 370.9375 L 135.667969 370.9375 Z M 275.804688 156.121094 "/></clipPath><clipPath id="86301b1068"><path d="M 135.671875 156.121094 L 375 156.121094 L 375 370.621094 L 135.671875 370.621094 Z M 135.671875 156.121094 "/></clipPath><clipPath id="80803fdfb2"><path d="M 275.601562 156.121094 L 415.53125 370.621094 L 135.671875 370.621094 Z M 275.601562 156.121094 "/></clipPath><clipPath id="fb1b9ccfaa"><path d="M 277.871094 47.242188 L 326.480469 47.242188 L 326.480469 101.359375 L 277.871094 101.359375 Z M 277.871094 47.242188 "/></clipPath><clipPath id="7bfa4ff803"><path d="M 302.175781 47.242188 C 288.75 47.242188 277.871094 59.34375 277.871094 74.265625 C 277.871094 89.191406 288.75 101.289062 302.175781 101.289062 C 315.597656 101.289062 326.480469 89.191406 326.480469 74.265625 C 326.480469 59.34375 315.597656 47.242188 302.175781 47.242188 Z M 302.175781 47.242188 "/></clipPath><clipPath id="dc42aa9edf"><path d="M 277.871094 47.242188 L 326.621094 47.242188 L 326.621094 101.242188 L 277.871094 101.242188 Z M 277.871094 47.242188 "/></clipPath><clipPath id="f4cac9537f"><path d="M 302.152344 47.242188 C 288.742188 47.242188 277.871094 59.332031 277.871094 74.242188 C 277.871094 89.15625 288.742188 101.242188 302.152344 101.242188 C 315.566406 101.242188 326.4375 89.15625 326.4375 74.242188 C 326.4375 59.332031 315.566406 47.242188 302.152344 47.242188 Z M 302.152344 47.242188 "/></clipPath><clipPath id="111644546e"><path d="M 6.664062 254.292969 L 273.371094 254.292969 L 273.371094 363.710938 L 6.664062 363.710938 Z M 6.664062 254.292969 "/></clipPath><clipPath id="b3de1a0bb8"><path d="M 140 254.292969 L 273.335938 363.710938 L 6.664062 363.710938 Z M 140 254.292969 "/></clipPath><clipPath id="0f984bddfe"><path d="M 73 69 L 207 69 L 207 172 L 73 172 Z M 73 69 "/></clipPath><clipPath id="74d1305107"><path d="M 52.597656 110.394531 L 170.25 36.84375 L 218.355469 113.792969 L 100.707031 187.347656 Z M 52.597656 110.394531 "/></clipPath><clipPath id="6c01488c89"><path d="M 52.597656 110.394531 L 170.25 36.84375 L 218.355469 113.792969 L 100.707031 187.347656 Z M 52.597656 110.394531 "/></clipPath><clipPath id="3263cb0d68"><path d="M 166 102 L 198 102 L 198 134 L 166 134 Z M 166 102 "/></clipPath><clipPath id="d6814c02d4"><path d="M 52.597656 110.394531 L 170.25 36.84375 L 218.355469 113.792969 L 100.707031 187.347656 Z M 52.597656 110.394531 "/></clipPath><clipPath id="99a473172c"><path d="M 52.597656 110.394531 L 170.25 36.84375 L 218.355469 113.792969 L 100.707031 187.347656 Z M 52.597656 110.394531 "/></clipPath><clipPath id="1d8d00e183"><path d="M 174 109 L 191 109 L 191 126 L 174 126 Z M 174 109 "/></clipPath><clipPath id="effbec4d09"><path d="M 52.597656 110.394531 L 170.25 36.84375 L 218.355469 113.792969 L 100.707031 187.347656 Z M 52.597656 110.394531 "/></clipPath><clipPath id="1e537d6869"><path d="M 52.597656 110.394531 L 170.25 36.84375 L 218.355469 113.792969 L 100.707031 187.347656 Z M 52.597656 110.394531 "/></clipPath><clipPath id="f0efa6f2eb"><path d="M 100 143 L 132 143 L 132 175 L 100 175 Z M 100 143 "/></clipPath><clipPath id="b8be4ad686"><path d="M 52.597656 110.394531 L 170.25 36.84375 L 218.355469 113.792969 L 100.707031 187.347656 Z M 52.597656 110.394531 "/></clipPath><clipPath id="140a3c8212"><path d="M 52.597656 110.394531 L 170.25 36.84375 L 218.355469 113.792969 L 100.707031 187.347656 Z M 52.597656 110.394531 "/></clipPath><clipPath id="788c4d66de"><path d="M 107 151 L 125 151 L 125 168 L 107 168 Z M 107 151 "/></clipPath><clipPath id="e07fe942ad"><path d="M 52.597656 110.394531 L 170.25 36.84375 L 218.355469 113.792969 L 100.707031 187.347656 Z M 52.597656 110.394531 "/></clipPath><clipPath id="fc419030f6"><path d="M 52.597656 110.394531 L 170.25 36.84375 L 218.355469 113.792969 L 100.707031 187.347656 Z M 52.597656 110.394531 "/></clipPath><clipPath id="372b8ef6cb"><path d="M 102 76 L 149 76 L 149 113 L 102 113 Z M 102 76 "/></clipPath><clipPath id="892a3fdd9e"><path d="M 52.597656 110.394531 L 170.25 36.84375 L 218.355469 113.792969 L 100.707031 187.347656 Z M 52.597656 110.394531 "/></clipPath><clipPath id="ee8cf8aa1d"><path d="M 52.597656 110.394531 L 170.25 36.84375 L 218.355469 113.792969 L 100.707031 187.347656 Z M 52.597656 110.394531 "/></clipPath><clipPath id="bdb364bc3e"><path d="M 81 93 L 108 93 L 108 129 L 81 129 Z M 81 93 "/></clipPath><clipPath id="9d925e7f35"><path d="M 52.597656 110.394531 L 170.25 36.84375 L 218.355469 113.792969 L 100.707031 187.347656 Z M 52.597656 110.394531 "/></clipPath><clipPath id="c8f7f08771"><path d="M 52.597656 110.394531 L 170.25 36.84375 L 218.355469 113.792969 L 100.707031 187.347656 Z M 52.597656 110.394531 "/></clipPath><clipPath id="ceaf845717"><path d="M 190 84 L 205 84 L 205 99 L 190 99 Z M 190 84 "/></clipPath><clipPath id="3df94f9c7b"><path d="M 52.597656 110.394531 L 170.25 36.84375 L 218.355469 113.792969 L 100.707031 187.347656 Z M 52.597656 110.394531 "/></clipPath><clipPath id="daab8a27d8"><path d="M 52.597656 110.394531 L 170.25 36.84375 L 218.355469 113.792969 L 100.707031 187.347656 Z M 52.597656 110.394531 "/></clipPath><clipPath id="6fc56c7004"><path d="M 198 101 L 212 101 L 212 112 L 198 112 Z M 198 101 "/></clipPath><clipPath id="1e7e8c4a9e"><path d="M 52.597656 110.394531 L 170.25 36.84375 L 218.355469 113.792969 L 100.707031 187.347656 Z M 52.597656 110.394531 "/></clipPath><clipPath id="83e297b907"><path d="M 52.597656 110.394531 L 170.25 36.84375 L 218.355469 113.792969 L 100.707031 187.347656 Z M 52.597656 110.394531 "/></clipPath><clipPath id="165287598f"><path d="M 133 128 L 169 128 L 169 153 L 133 153 Z M 133 128 "/></clipPath><clipPath id="e816249394"><path d="M 52.597656 110.394531 L 170.25 36.84375 L 218.355469 113.792969 L 100.707031 187.347656 Z M 52.597656 110.394531 "/></clipPath><clipPath id="492f60ddd2"><path d="M 52.597656 110.394531 L 170.25 36.84375 L 218.355469 113.792969 L 100.707031 187.347656 Z M 52.597656 110.394531 "/></clipPath><clipPath id="2938c8ff34"><path d="M 93 169 L 103 169 L 103 177 L 93 177 Z M 93 169 "/></clipPath><clipPath id="c05a57f008"><path d="M 52.597656 110.394531 L 170.25 36.84375 L 218.355469 113.792969 L 100.707031 187.347656 Z M 52.597656 110.394531 "/></clipPath><clipPath id="a6bdc82a5c"><path d="M 52.597656 110.394531 L 170.25 36.84375 L 218.355469 113.792969 L 100.707031 187.347656 Z M 52.597656 110.394531 "/></clipPath><clipPath id="98531c5471"><path d="M 0 0.0078125 L 375 0.0078125 L 375 375 L 0 375 Z M 0 0.0078125 "/></clipPath><clipPath id="97c8f6647f"><path d="M 375 4.507812 L 375 370.492188 C 375 372.976562 372.984375 374.992188 370.5 374.992188 L 4.5 374.992188 C 2.015625 374.992188 0 372.976562 0 370.492188 L 0 4.507812 C 0 2.023438 2.015625 0.0078125 4.5 0.0078125 L 370.5 0.0078125 C 372.984375 0.0078125 375 2.023438 375 4.507812 Z M 375 4.507812 "/></clipPath></defs><g id="e12fff6e9a"><g clip-rule="nonzero" clip-path="url(#7926484e99)"><g clip-rule="nonzero" clip-path="url(#a1ed92ab54)"><path style=" stroke:none;fill-rule:nonzero;fill:#97b08a;fill-opacity:1;" d="M -103.863281 198.675781 L 285.738281 198.675781 L 285.738281 370.9375 L -103.863281 370.9375 Z M -103.863281 198.675781 "/></g></g><g clip-rule="nonzero" clip-path="url(#33eabc8e8f)"><g clip-rule="nonzero" clip-path="url(#33eb6279d8)"><path style="fill:none;stroke-width:20;stroke-linecap:butt;stroke-linejoin:miter;stroke:#000000;stroke-opacity:1;stroke-miterlimit:4;" d="M 259.780941 -0.00132494 L 519.557 229.670565 L -0.000326094 229.670565 Z M 259.780941 -0.00132494 " transform="matrix(0.75,0,0,0.75,-103.863037,198.676775)"/></g></g><g clip-rule="nonzero" clip-path="url(#322a2f729e)"><g clip-rule="nonzero" clip-path="url(#1a6fb67186)"><path style=" stroke:none;fill-rule:nonzero;fill:#97b08a;fill-opacity:1;" d="M 135.667969 156.121094 L 415.9375 156.121094 L 415.9375 370.9375 L 135.667969 370.9375 Z M 135.667969 156.121094 "/></g></g><g clip-rule="nonzero" clip-path="url(#86301b1068)"><g clip-rule="nonzero" clip-path="url(#80803fdfb2)"><path style="fill:none;stroke-width:20;stroke-linecap:butt;stroke-linejoin:miter;stroke:#000000;stroke-opacity:1;stroke-miterlimit:4;" d="M 186.838423 0.000592843 L 373.676357 286.406841 L 0.000489506 286.406841 Z M 186.838423 0.000592843 " transform="matrix(0.748936,0,0,0.748936,135.671508,156.12065)"/></g></g><g clip-rule="nonzero" clip-path="url(#fb1b9ccfaa)"><g clip-rule="nonzero" clip-path="url(#7bfa4ff803)"><path style=" stroke:none;fill-rule:nonzero;fill:#f9f9da;fill-opacity:1;" d="M 277.871094 47.242188 L 326.480469 47.242188 L 326.480469 101.359375 L 277.871094 101.359375 Z M 277.871094 47.242188 "/></g></g><g clip-rule="nonzero" clip-path="url(#dc42aa9edf)"><g clip-rule="nonzero" clip-path="url(#f4cac9537f)"><path style="fill:none;stroke-width:20;stroke-linecap:butt;stroke-linejoin:miter;stroke:#000000;stroke-opacity:1;stroke-miterlimit:4;" d="M 32.396824 -0.00154634 C 14.504975 -0.00154634 0.000746481 16.12874 0.000746481 36.021891 C 0.000746481 55.920254 14.504975 72.045329 32.396824 72.045329 C 50.293885 72.045329 64.798114 55.920254 64.798114 36.021891 C 64.798114 16.12874 50.293885 -0.00154634 32.396824 -0.00154634 Z M 32.396824 -0.00154634 " transform="matrix(0.749512,0,0,0.749512,277.870534,47.243346)"/></g></g><g clip-rule="nonzero" clip-path="url(#111644546e)"><g clip-rule="nonzero" clip-path="url(#b3de1a0bb8)"><path style=" stroke:none;fill-rule:nonzero;fill:#97b08a;fill-opacity:1;" d="M 6.664062 254.292969 L 273.371094 254.292969 L 273.371094 363.710938 L 6.664062 363.710938 Z M 6.664062 254.292969 "/></g></g><g clip-rule="nonzero" clip-path="url(#0f984bddfe)"><g clip-rule="nonzero" clip-path="url(#74d1305107)"><g clip-rule="nonzero" clip-path="url(#6c01488c89)"><path style=" stroke:none;fill-rule:nonzero;fill:#7db1ff;fill-opacity:1;" d="M 204.78125 94.792969 L 199.5 86.347656 C 197.246094 82.738281 193.003906 80.839844 188.808594 81.566406 L 157.167969 87.191406 L 137.152344 73.304688 C 131.199219 69.15625 123.453125 68.703125 117.015625 72.085938 L 104.65625 78.589844 C 97.835938 82.175781 91.414062 86.394531 85.425781 91.253906 L 79.015625 96.417969 C 75.269531 99.4375 73.164062 104.046875 73.324219 108.867188 L 73.734375 121.945312 C 74.285156 138.839844 80.523438 155.0625 91.460938 167.941406 C 94.445312 171.472656 99.578125 172.300781 103.507812 169.84375 L 199.445312 109.867188 C 201.785156 108.402344 203.671875 106.375 204.953125 103.914062 L 205.105469 103.613281 C 206.582031 100.824219 206.441406 97.449219 204.78125 94.792969 Z M 204.78125 94.792969 "/></g></g></g><g clip-rule="nonzero" clip-path="url(#3263cb0d68)"><g clip-rule="nonzero" clip-path="url(#d6814c02d4)"><g clip-rule="nonzero" clip-path="url(#99a473172c)"><path style=" stroke:none;fill-rule:nonzero;fill:#384868;fill-opacity:1;" d="M 195.550781 109.449219 C 196.097656 110.324219 196.554688 111.242188 196.917969 112.203125 C 197.28125 113.167969 197.550781 114.15625 197.722656 115.171875 C 197.890625 116.1875 197.960938 117.210938 197.929688 118.238281 C 197.898438 119.269531 197.765625 120.285156 197.535156 121.289062 C 197.304688 122.292969 196.976562 123.261719 196.554688 124.203125 C 196.132812 125.140625 195.621094 126.03125 195.023438 126.867188 C 194.425781 127.707031 193.75 128.480469 193.003906 129.183594 C 192.253906 129.890625 191.441406 130.515625 190.566406 131.0625 C 189.695312 131.605469 188.777344 132.0625 187.8125 132.429688 C 186.851562 132.792969 185.863281 133.058594 184.847656 133.230469 C 183.832031 133.402344 182.808594 133.46875 181.777344 133.4375 C 180.75 133.40625 179.734375 133.277344 178.730469 133.046875 C 177.726562 132.8125 176.753906 132.488281 175.816406 132.0625 C 174.878906 131.640625 173.988281 131.132812 173.152344 130.53125 C 172.3125 129.933594 171.539062 129.261719 170.835938 128.511719 C 170.128906 127.761719 169.503906 126.949219 168.957031 126.078125 C 168.410156 125.203125 167.957031 124.285156 167.589844 123.324219 C 167.226562 122.359375 166.957031 121.371094 166.789062 120.355469 C 166.617188 119.339844 166.546875 118.316406 166.578125 117.289062 C 166.609375 116.257812 166.742188 115.242188 166.972656 114.238281 C 167.203125 113.238281 167.53125 112.265625 167.953125 111.328125 C 168.378906 110.386719 168.886719 109.5 169.484375 108.660156 C 170.082031 107.820312 170.757812 107.050781 171.507812 106.34375 C 172.257812 105.636719 173.066406 105.011719 173.941406 104.46875 C 174.8125 103.921875 175.730469 103.464844 176.695312 103.101562 C 177.65625 102.734375 178.648438 102.46875 179.664062 102.296875 C 180.679688 102.128906 181.699219 102.058594 182.730469 102.089844 C 183.757812 102.121094 184.777344 102.25 185.777344 102.484375 C 186.78125 102.714844 187.753906 103.042969 188.691406 103.464844 C 189.632812 103.886719 190.519531 104.398438 191.359375 104.996094 C 192.195312 105.59375 192.96875 106.265625 193.675781 107.015625 C 194.378906 107.765625 195.007812 108.578125 195.550781 109.449219 Z M 195.550781 109.449219 "/></g></g></g><g clip-rule="nonzero" clip-path="url(#1d8d00e183)"><g clip-rule="nonzero" clip-path="url(#effbec4d09)"><g clip-rule="nonzero" clip-path="url(#1e537d6869)"><path style=" stroke:none;fill-rule:nonzero;fill:#ffffff;fill-opacity:1;" d="M 189.136719 113.460938 C 189.417969 113.914062 189.652344 114.390625 189.84375 114.886719 C 190.03125 115.386719 190.167969 115.898438 190.257812 116.421875 C 190.34375 116.949219 190.382812 117.476562 190.363281 118.011719 C 190.347656 118.542969 190.28125 119.070312 190.160156 119.585938 C 190.042969 120.105469 189.871094 120.609375 189.652344 121.09375 C 189.433594 121.582031 189.171875 122.039062 188.863281 122.476562 C 188.550781 122.910156 188.203125 123.308594 187.816406 123.671875 C 187.425781 124.039062 187.007812 124.363281 186.554688 124.644531 C 186.105469 124.925781 185.628906 125.164062 185.132812 125.351562 C 184.632812 125.539062 184.121094 125.679688 183.59375 125.765625 C 183.070312 125.855469 182.539062 125.890625 182.007812 125.875 C 181.476562 125.859375 180.949219 125.789062 180.429688 125.671875 C 179.910156 125.550781 179.410156 125.382812 178.921875 125.164062 C 178.4375 124.945312 177.976562 124.679688 177.542969 124.371094 C 177.109375 124.0625 176.710938 123.714844 176.34375 123.324219 C 175.980469 122.9375 175.65625 122.515625 175.375 122.066406 C 175.089844 121.613281 174.855469 121.140625 174.667969 120.640625 C 174.476562 120.140625 174.339844 119.628906 174.25 119.105469 C 174.164062 118.578125 174.128906 118.050781 174.144531 117.519531 C 174.160156 116.984375 174.226562 116.460938 174.347656 115.941406 C 174.46875 115.421875 174.636719 114.917969 174.855469 114.433594 C 175.074219 113.949219 175.339844 113.488281 175.648438 113.054688 C 175.957031 112.621094 176.304688 112.21875 176.691406 111.855469 C 177.082031 111.488281 177.5 111.167969 177.953125 110.882812 C 178.40625 110.601562 178.878906 110.367188 179.378906 110.175781 C 179.875 109.988281 180.386719 109.847656 180.914062 109.761719 C 181.4375 109.671875 181.96875 109.636719 182.5 109.652344 C 183.03125 109.667969 183.558594 109.738281 184.078125 109.859375 C 184.597656 109.976562 185.101562 110.144531 185.585938 110.363281 C 186.070312 110.582031 186.53125 110.847656 186.964844 111.15625 C 187.398438 111.464844 187.796875 111.816406 188.164062 112.203125 C 188.527344 112.589844 188.851562 113.011719 189.136719 113.460938 Z M 189.136719 113.460938 "/></g></g></g><g clip-rule="nonzero" clip-path="url(#f0efa6f2eb)"><g clip-rule="nonzero" clip-path="url(#b8be4ad686)"><g clip-rule="nonzero" clip-path="url(#140a3c8212)"><path style=" stroke:none;fill-rule:nonzero;fill:#384868;fill-opacity:1;" d="M 129.359375 150.832031 C 129.902344 151.707031 130.359375 152.625 130.722656 153.585938 C 131.089844 154.550781 131.355469 155.539062 131.527344 156.554688 C 131.695312 157.570312 131.765625 158.59375 131.734375 159.621094 C 131.703125 160.652344 131.574219 161.667969 131.339844 162.671875 C 131.109375 163.675781 130.78125 164.644531 130.359375 165.585938 C 129.9375 166.523438 129.425781 167.410156 128.828125 168.25 C 128.230469 169.089844 127.558594 169.859375 126.808594 170.566406 C 126.058594 171.273438 125.246094 171.898438 124.375 172.445312 C 123.5 172.988281 122.582031 173.445312 121.621094 173.808594 C 120.65625 174.175781 119.667969 174.441406 118.652344 174.613281 C 117.636719 174.785156 116.613281 174.851562 115.585938 174.820312 C 114.554688 174.789062 113.539062 174.660156 112.535156 174.425781 C 111.53125 174.195312 110.5625 173.867188 109.621094 173.445312 C 108.683594 173.023438 107.796875 172.511719 106.957031 171.914062 C 106.117188 171.316406 105.347656 170.644531 104.640625 169.894531 C 103.933594 169.144531 103.308594 168.332031 102.761719 167.460938 C 102.21875 166.585938 101.761719 165.667969 101.398438 164.707031 C 101.03125 163.742188 100.765625 162.753906 100.59375 161.738281 C 100.425781 160.722656 100.355469 159.699219 100.386719 158.671875 C 100.417969 157.640625 100.546875 156.625 100.78125 155.621094 C 101.011719 154.617188 101.339844 153.648438 101.761719 152.707031 C 102.183594 151.769531 102.695312 150.882812 103.292969 150.042969 C 103.890625 149.203125 104.5625 148.433594 105.3125 147.726562 C 106.0625 147.019531 106.875 146.394531 107.746094 145.847656 C 108.621094 145.304688 109.539062 144.847656 110.5 144.484375 C 111.464844 144.117188 112.453125 143.851562 113.46875 143.679688 C 114.484375 143.511719 115.507812 143.441406 116.535156 143.472656 C 117.566406 143.503906 118.582031 143.632812 119.585938 143.867188 C 120.589844 144.097656 121.558594 144.425781 122.5 144.847656 C 123.4375 145.269531 124.324219 145.78125 125.164062 146.378906 C 126.003906 146.976562 126.773438 147.648438 127.480469 148.398438 C 128.1875 149.148438 128.8125 149.960938 129.359375 150.832031 Z M 129.359375 150.832031 "/></g></g></g><g clip-rule="nonzero" clip-path="url(#788c4d66de)"><g clip-rule="nonzero" clip-path="url(#e07fe942ad)"><g clip-rule="nonzero" clip-path="url(#fc419030f6)"><path style=" stroke:none;fill-rule:nonzero;fill:#ffffff;fill-opacity:1;" d="M 122.941406 154.84375 C 123.222656 155.296875 123.460938 155.773438 123.648438 156.269531 C 123.835938 156.769531 123.976562 157.28125 124.0625 157.804688 C 124.152344 158.332031 124.1875 158.859375 124.171875 159.394531 C 124.15625 159.925781 124.085938 160.449219 123.96875 160.96875 C 123.847656 161.488281 123.679688 161.992188 123.460938 162.476562 C 123.242188 162.964844 122.976562 163.421875 122.667969 163.855469 C 122.359375 164.292969 122.011719 164.691406 121.621094 165.054688 C 121.234375 165.421875 120.8125 165.746094 120.363281 166.027344 C 119.910156 166.308594 119.433594 166.546875 118.9375 166.734375 C 118.4375 166.921875 117.925781 167.0625 117.402344 167.148438 C 116.875 167.238281 116.347656 167.273438 115.816406 167.257812 C 115.28125 167.242188 114.757812 167.171875 114.238281 167.054688 C 113.71875 166.933594 113.214844 166.765625 112.730469 166.546875 C 112.242188 166.328125 111.785156 166.0625 111.351562 165.753906 C 110.917969 165.445312 110.515625 165.097656 110.152344 164.707031 C 109.785156 164.320312 109.460938 163.898438 109.179688 163.449219 C 108.898438 162.996094 108.664062 162.519531 108.472656 162.023438 C 108.285156 161.523438 108.144531 161.011719 108.058594 160.488281 C 107.96875 159.960938 107.933594 159.433594 107.949219 158.902344 C 107.964844 158.367188 108.035156 157.84375 108.152344 157.324219 C 108.273438 156.804688 108.441406 156.300781 108.660156 155.816406 C 108.878906 155.328125 109.144531 154.871094 109.453125 154.4375 C 109.761719 154.003906 110.113281 153.601562 110.5 153.238281 C 110.886719 152.871094 111.308594 152.546875 111.757812 152.265625 C 112.210938 151.984375 112.6875 151.75 113.183594 151.558594 C 113.683594 151.371094 114.195312 151.230469 114.71875 151.144531 C 115.246094 151.054688 115.773438 151.019531 116.308594 151.035156 C 116.839844 151.050781 117.363281 151.121094 117.882812 151.238281 C 118.402344 151.359375 118.90625 151.527344 119.390625 151.746094 C 119.878906 151.964844 120.335938 152.230469 120.769531 152.539062 C 121.207031 152.847656 121.605469 153.199219 121.96875 153.585938 C 122.335938 153.972656 122.660156 154.394531 122.941406 154.84375 Z M 122.941406 154.84375 "/></g></g></g><g clip-rule="nonzero" clip-path="url(#372b8ef6cb)"><g clip-rule="nonzero" clip-path="url(#892a3fdd9e)"><g clip-rule="nonzero" clip-path="url(#ee8cf8aa1d)"><path style=" stroke:none;fill-rule:nonzero;fill:#d4f5ff;fill-opacity:1;" d="M 147.09375 91.050781 L 130.816406 78.148438 C 127.835938 75.769531 123.71875 75.425781 120.375 77.246094 L 104.386719 85.917969 C 102.835938 86.75 102.257812 88.707031 103.117188 90.242188 C 103.148438 90.289062 103.191406 90.363281 103.222656 90.410156 L 116.296875 111.320312 C 117.316406 112.957031 119.457031 113.449219 121.09375 112.429688 L 146.808594 96.351562 C 148.347656 95.390625 148.8125 93.367188 147.851562 91.832031 C 147.628906 91.527344 147.398438 91.265625 147.09375 91.050781 Z M 147.09375 91.050781 "/></g></g></g><g clip-rule="nonzero" clip-path="url(#bdb364bc3e)"><g clip-rule="nonzero" clip-path="url(#9d925e7f35)"><g clip-rule="nonzero" clip-path="url(#c8f7f08771)"><path style=" stroke:none;fill-rule:nonzero;fill:#d4f5ff;fill-opacity:1;" d="M 96.058594 95.398438 L 107.539062 116.421875 C 108.464844 118.117188 107.851562 120.230469 106.15625 121.15625 C 106.058594 121.21875 105.96875 121.238281 105.871094 121.300781 L 90.132812 128.152344 C 88.183594 128.996094 85.929688 128.101562 85.082031 126.152344 C 84.980469 125.878906 84.859375 125.578125 84.820312 125.296875 L 81.71875 107.417969 C 81.234375 104.632812 82.308594 101.792969 84.515625 100.003906 L 91.253906 94.5 C 92.621094 93.375 94.621094 93.585938 95.746094 94.953125 C 95.847656 95.058594 95.953125 95.230469 96.058594 95.398438 Z M 96.058594 95.398438 "/></g></g></g><g clip-rule="nonzero" clip-path="url(#ceaf845717)"><g clip-rule="nonzero" clip-path="url(#3df94f9c7b)"><g clip-rule="nonzero" clip-path="url(#daab8a27d8)"><path style=" stroke:none;fill-rule:nonzero;fill:#ffd664;fill-opacity:1;" d="M 203.132812 95.140625 L 199.398438 97.476562 C 196.667969 99.183594 193.097656 98.363281 191.390625 95.628906 C 189.679688 92.894531 190.503906 89.328125 193.238281 87.617188 L 196.96875 85.285156 C 198.359375 84.414062 200.210938 84.820312 201.09375 86.234375 L 204.097656 91.042969 C 204.96875 92.433594 204.546875 94.257812 203.132812 95.140625 Z M 203.132812 95.140625 "/></g></g></g><g clip-rule="nonzero" clip-path="url(#6fc56c7004)"><g clip-rule="nonzero" clip-path="url(#1e7e8c4a9e)"><g clip-rule="nonzero" clip-path="url(#83e297b907)"><path style=" stroke:none;fill-rule:nonzero;fill:#384868;fill-opacity:1;" d="M 200.148438 106 L 207.222656 101.578125 C 208.527344 100.730469 210.238281 101.082031 211.121094 102.332031 C 211.992188 103.617188 211.632812 105.371094 210.351562 106.203125 C 210.328125 106.21875 210.304688 106.234375 210.28125 106.25 L 203.105469 110.734375 C 201.789062 111.558594 200.070312 111.140625 199.261719 109.847656 C 198.453125 108.554688 198.855469 106.808594 200.148438 106 Z M 200.148438 106 "/></g></g></g><g clip-rule="nonzero" clip-path="url(#165287598f)"><g clip-rule="nonzero" clip-path="url(#e816249394)"><g clip-rule="nonzero" clip-path="url(#492f60ddd2)"><path style=" stroke:none;fill-rule:nonzero;fill:#384868;fill-opacity:1;" d="M 134.417969 147.09375 L 164.039062 128.574219 C 165.355469 127.753906 167.074219 128.167969 167.882812 129.464844 C 168.707031 130.78125 168.289062 132.5 166.996094 133.308594 L 137.375 151.828125 C 136.058594 152.652344 134.339844 152.234375 133.53125 150.941406 C 132.722656 149.648438 133.125 147.902344 134.417969 147.09375 Z M 134.417969 147.09375 "/></g></g></g><g clip-rule="nonzero" clip-path="url(#2938c8ff34)"><g clip-rule="nonzero" clip-path="url(#c05a57f008)"><g clip-rule="nonzero" clip-path="url(#a6bdc82a5c)"><path style=" stroke:none;fill-rule:nonzero;fill:#384868;fill-opacity:1;" d="M 94.300781 175.90625 C 95.242188 176.980469 96.816406 177.21875 98.035156 176.453125 L 100.867188 174.6875 C 102.183594 173.863281 102.578125 172.15625 101.753906 170.839844 C 100.929688 169.523438 99.199219 169.144531 97.90625 169.953125 L 94.980469 171.78125 C 93.664062 172.605469 93.285156 174.335938 94.09375 175.628906 C 94.152344 175.726562 94.214844 175.824219 94.300781 175.90625 Z M 94.300781 175.90625 "/></g></g></g><g clip-rule="nonzero" clip-path="url(#98531c5471)"><g clip-rule="nonzero" clip-path="url(#97c8f6647f)"><path style="fill:none;stroke-width:22;stroke-linecap:butt;stroke-linejoin:miter;stroke:#000000;stroke-opacity:1;stroke-miterlimit:4;" d="M 499.999995 6.001234 L 499.999995 493.980401 C 499.999995 497.292901 497.312495 499.980401 493.999995 499.980401 L 5.999994 499.980401 C 2.687494 499.980401 -0.000006 497.292901 -0.000006 493.980401 L -0.000006 6.001234 C -0.000006 2.688734 2.687494 0.00123368 5.999994 0.00123368 L 493.999995 0.00123368 C 497.312495 0.00123368 499.999995 2.688734 499.999995 6.001234 Z M 499.999995 6.001234 " transform="matrix(0.75,0,0,0.75,0.0000045,0.00688724)"/></g></g></g></svg>