<svg xmlns="http://www.w3.org/2000/svg" xmlns:xlink="http://www.w3.org/1999/xlink" width="500" zoomAndPan="magnify" viewBox="0 0 375 374.999991" height="500" preserveAspectRatio="xMidYMid meet" version="1.2"><defs><clipPath id="9541ef938a"><path d="M 30.195312 31.109375 L 343.386719 31.109375 L 343.386719 346.417969 L 30.195312 346.417969 Z M 30.195312 31.109375 "/></clipPath><clipPath id="13d6821e68"><path d="M 253.25 58.859375 L 299.996094 58.859375 L 299.996094 110.902344 L 253.25 110.902344 Z M 253.25 58.859375 "/></clipPath><clipPath id="9956ce679d"><path d="M 276.625 58.859375 C 263.714844 58.859375 253.25 70.496094 253.25 84.847656 C 253.25 99.203125 263.714844 110.835938 276.625 110.835938 C 289.53125 110.835938 299.996094 99.203125 299.996094 84.847656 C 299.996094 70.496094 289.53125 58.859375 276.625 58.859375 Z M 276.625 58.859375 "/></clipPath><clipPath id="e678111255"><path d="M 253.25 58.863281 L 300 58.863281 L 300 110.488281 L 253.25 110.488281 Z M 253.25 58.863281 "/></clipPath><clipPath id="9554a48590"><path d="M 276.464844 58.863281 C 263.644531 58.863281 253.25 70.417969 253.25 84.675781 C 253.25 98.929688 263.644531 110.488281 276.464844 110.488281 C 289.285156 110.488281 299.679688 98.929688 299.679688 84.675781 C 299.679688 70.417969 289.285156 58.863281 276.464844 58.863281 Z M 276.464844 58.863281 "/></clipPath><clipPath id="861294d871"><path d="M 30.328125 196.871094 L 272 196.871094 L 272 350.714844 L 30.328125 350.714844 Z M 30.328125 196.871094 "/></clipPath><clipPath id="09ab2cf694"><path d="M 151.183594 196.871094 L 272.039062 350.714844 L 30.328125 350.714844 Z M 151.183594 196.871094 "/></clipPath><clipPath id="d32213befc"><path d="M 30.332031 196.871094 L 272.039062 196.871094 L 272.039062 350.945312 L 30.332031 350.945312 Z M 30.332031 196.871094 "/></clipPath><clipPath id="7a23f8b75f"><path d="M 151.175781 196.871094 L 272.023438 350.703125 L 30.332031 350.703125 Z M 151.175781 196.871094 "/></clipPath><clipPath id="ae56f8193d"><path d="M 137.941406 158.867188 L 349 158.867188 L 349 350.714844 L 137.941406 350.714844 Z M 137.941406 158.867188 "/></clipPath><clipPath id="d6f8dca582"><path d="M 243.445312 158.867188 L 348.945312 350.714844 L 137.941406 350.714844 Z M 243.445312 158.867188 "/></clipPath><clipPath id="d5de4eec51"><path d="M 137.941406 158.867188 L 349 158.867188 L 349 350.511719 L 137.941406 350.511719 Z M 137.941406 158.867188 "/></clipPath><clipPath id="6c002b43e0"><path d="M 243.332031 158.867188 L 348.722656 350.511719 L 137.941406 350.511719 Z M 243.332031 158.867188 "/></clipPath><clipPath id="e36d1814c1"><path d="M 85.179688 236.242188 L 256.660156 236.242188 L 256.660156 342.792969 L 85.179688 342.792969 Z M 85.179688 236.242188 "/></clipPath><clipPath id="cc09d9b1f4"><path d="M 170.917969 236.242188 L 256.65625 342.792969 L 85.179688 342.792969 Z M 170.917969 236.242188 "/></clipPath><clipPath id="3ac1b3817c"><path d="M 97 96 L 203 96 L 203 180 L 97 180 Z M 97 96 "/></clipPath><clipPath id="37a9a15d0f"><path d="M 80.78125 134.542969 L 169.386719 66.265625 L 213.789062 123.890625 L 125.183594 192.164062 Z M 80.78125 134.542969 "/></clipPath><clipPath id="d15b7e7819"><path d="M 80.78125 134.542969 L 169.386719 66.265625 L 213.789062 123.890625 L 125.183594 192.164062 Z M 80.78125 134.542969 "/></clipPath><clipPath id="b2b35fa2e5"><path d="M 172 117 L 198 117 L 198 143 L 172 143 Z M 172 117 "/></clipPath><clipPath id="4f266413ca"><path d="M 80.78125 134.542969 L 169.386719 66.265625 L 213.789062 123.890625 L 125.183594 192.164062 Z M 80.78125 134.542969 "/></clipPath><clipPath id="533ded9514"><path d="M 80.78125 134.542969 L 169.386719 66.265625 L 213.789062 123.890625 L 125.183594 192.164062 Z M 80.78125 134.542969 "/></clipPath><clipPath id="c87d00a31c"><path d="M 178 123 L 192 123 L 192 137 L 178 137 Z M 178 123 "/></clipPath><clipPath id="062f178fda"><path d="M 80.78125 134.542969 L 169.386719 66.265625 L 213.789062 123.890625 L 125.183594 192.164062 Z M 80.78125 134.542969 "/></clipPath><clipPath id="dcd689de4e"><path d="M 80.78125 134.542969 L 169.386719 66.265625 L 213.789062 123.890625 L 125.183594 192.164062 Z M 80.78125 134.542969 "/></clipPath><clipPath id="eb29431d42"><path d="M 122 155 L 148 155 L 148 182 L 122 182 Z M 122 155 "/></clipPath><clipPath id="fb5517fd08"><path d="M 80.78125 134.542969 L 169.386719 66.265625 L 213.789062 123.890625 L 125.183594 192.164062 Z M 80.78125 134.542969 "/></clipPath><clipPath id="878b71e673"><path d="M 80.78125 134.542969 L 169.386719 66.265625 L 213.789062 123.890625 L 125.183594 192.164062 Z M 80.78125 134.542969 "/></clipPath><clipPath id="25750db1f7"><path d="M 128 161 L 142 161 L 142 175 L 128 175 Z M 128 161 "/></clipPath><clipPath id="f02df60bc2"><path d="M 80.78125 134.542969 L 169.386719 66.265625 L 213.789062 123.890625 L 125.183594 192.164062 Z M 80.78125 134.542969 "/></clipPath><clipPath id="27d3291439"><path d="M 80.78125 134.542969 L 169.386719 66.265625 L 213.789062 123.890625 L 125.183594 192.164062 Z M 80.78125 134.542969 "/></clipPath><clipPath id="3aa01b9269"><path d="M 119 101 L 156 101 L 156 132 L 119 132 Z M 119 101 "/></clipPath><clipPath id="fd2e536b63"><path d="M 80.78125 134.542969 L 169.386719 66.265625 L 213.789062 123.890625 L 125.183594 192.164062 Z M 80.78125 134.542969 "/></clipPath><clipPath id="751cac6814"><path d="M 80.78125 134.542969 L 169.386719 66.265625 L 213.789062 123.890625 L 125.183594 192.164062 Z M 80.78125 134.542969 "/></clipPath><clipPath id="ba23424320"><path d="M 103 118 L 126 118 L 126 147 L 103 147 Z M 103 118 "/></clipPath><clipPath id="153370d97e"><path d="M 80.78125 134.542969 L 169.386719 66.265625 L 213.789062 123.890625 L 125.183594 192.164062 Z M 80.78125 134.542969 "/></clipPath><clipPath id="e88ad7ce77"><path d="M 80.78125 134.542969 L 169.386719 66.265625 L 213.789062 123.890625 L 125.183594 192.164062 Z M 80.78125 134.542969 "/></clipPath><clipPath id="cb6dcf4325"><path d="M 189 102 L 201 102 L 201 114 L 189 114 Z M 189 102 "/></clipPath><clipPath id="195060439e"><path d="M 80.78125 134.542969 L 169.386719 66.265625 L 213.789062 123.890625 L 125.183594 192.164062 Z M 80.78125 134.542969 "/></clipPath><clipPath id="5f3e184bd4"><path d="M 80.78125 134.542969 L 169.386719 66.265625 L 213.789062 123.890625 L 125.183594 192.164062 Z M 80.78125 134.542969 "/></clipPath><clipPath id="f5ae16e0a6"><path d="M 197 114 L 208 114 L 208 124 L 197 124 Z M 197 114 "/></clipPath><clipPath id="2331736ee0"><path d="M 80.78125 134.542969 L 169.386719 66.265625 L 213.789062 123.890625 L 125.183594 192.164062 Z M 80.78125 134.542969 "/></clipPath><clipPath id="70dde8246f"><path d="M 80.78125 134.542969 L 169.386719 66.265625 L 213.789062 123.890625 L 125.183594 192.164062 Z M 80.78125 134.542969 "/></clipPath><clipPath id="7125dbb980"><path d="M 148 139 L 175 139 L 175 162 L 148 162 Z M 148 139 "/></clipPath><clipPath id="da11eed88a"><path d="M 80.78125 134.542969 L 169.386719 66.265625 L 213.789062 123.890625 L 125.183594 192.164062 Z M 80.78125 134.542969 "/></clipPath><clipPath id="59373c9ea1"><path d="M 80.78125 134.542969 L 169.386719 66.265625 L 213.789062 123.890625 L 125.183594 192.164062 Z M 80.78125 134.542969 "/></clipPath><clipPath id="de5a277010"><path d="M 118 178 L 126 178 L 126 185 L 118 185 Z M 118 178 "/></clipPath><clipPath id="02daa90a87"><path d="M 80.78125 134.542969 L 169.386719 66.265625 L 213.789062 123.890625 L 125.183594 192.164062 Z M 80.78125 134.542969 "/></clipPath><clipPath id="969c372e3d"><path d="M 80.78125 134.542969 L 169.386719 66.265625 L 213.789062 123.890625 L 125.183594 192.164062 Z M 80.78125 134.542969 "/></clipPath></defs><g id="e4a01fd1b5"><g clip-rule="nonzero" clip-path="url(#9541ef938a)"><path style=" stroke:none;fill-rule:nonzero;fill:#f8f4eb;fill-opacity:1;" d="M 30.195312 31.109375 L 343.386719 31.109375 L 343.386719 346.746094 L 30.195312 346.746094 Z M 30.195312 31.109375 "/></g><g clip-rule="nonzero" clip-path="url(#13d6821e68)"><g clip-rule="nonzero" clip-path="url(#9956ce679d)"><path style=" stroke:none;fill-rule:nonzero;fill:#f9f9da;fill-opacity:1;" d="M 253.25 58.859375 L 299.996094 58.859375 L 299.996094 110.902344 L 253.25 110.902344 Z M 253.25 58.859375 "/></g></g><g clip-rule="nonzero" clip-path="url(#e678111255)"><g clip-rule="nonzero" clip-path="url(#9554a48590)"><path style="fill:none;stroke-width:19.175793;stroke-linecap:butt;stroke-linejoin:miter;stroke:#160e0c;stroke-opacity:1;stroke-miterlimit:4;" d="M 29.874269 0.00209644 C 13.376316 0.00209644 0.00000428535 14.871367 0.00000428535 33.219182 C 0.00000428535 51.561971 13.376316 66.436268 29.874269 66.436268 C 46.372222 66.436268 59.748533 51.561971 59.748533 33.219182 C 59.748533 14.871367 46.372222 0.00209644 29.874269 0.00209644 Z M 29.874269 0.00209644 " transform="matrix(0.777085,0,0,0.777085,253.249997,58.861652)"/></g></g><g clip-rule="nonzero" clip-path="url(#861294d871)"><g clip-rule="nonzero" clip-path="url(#09ab2cf694)"><path style=" stroke:none;fill-rule:nonzero;fill:#97b08a;fill-opacity:1;" d="M 30.328125 196.871094 L 271.910156 196.871094 L 271.910156 350.714844 L 30.328125 350.714844 Z M 30.328125 196.871094 "/></g></g><g clip-rule="nonzero" clip-path="url(#d32213befc)"><g clip-rule="nonzero" clip-path="url(#7a23f8b75f)"><path style="fill:none;stroke-width:19.175793;stroke-linecap:butt;stroke-linejoin:miter;stroke:#160e0c;stroke-opacity:1;stroke-miterlimit:4;" d="M 154.485455 -0.000687928 L 308.975442 196.656072 L 0.000461167 196.656072 Z M 154.485455 -0.000687928 " transform="matrix(0.782236,0,0,0.782236,30.331671,196.871632)"/></g></g><g clip-rule="nonzero" clip-path="url(#ae56f8193d)"><g clip-rule="nonzero" clip-path="url(#d6f8dca582)"><path style=" stroke:none;fill-rule:nonzero;fill:#97b08a;fill-opacity:1;" d="M 137.941406 158.867188 L 349.273438 158.867188 L 349.273438 350.714844 L 137.941406 350.714844 Z M 137.941406 158.867188 "/></g></g><g clip-rule="nonzero" clip-path="url(#d5de4eec51)"><g clip-rule="nonzero" clip-path="url(#6c002b43e0)"><path style="fill:none;stroke-width:19.175793;stroke-linecap:butt;stroke-linejoin:miter;stroke:#160e0c;stroke-opacity:1;stroke-miterlimit:4;" d="M 134.86866 0.00089928 L 269.736076 245.246648 L 0.00124336 245.246648 Z M 134.86866 0.00089928 " transform="matrix(0.781439,0,0,0.781439,137.940435,158.866485)"/></g></g><g clip-rule="nonzero" clip-path="url(#e36d1814c1)"><g clip-rule="nonzero" clip-path="url(#cc09d9b1f4)"><path style=" stroke:none;fill-rule:nonzero;fill:#97b08a;fill-opacity:1;" d="M 85.179688 236.242188 L 256.660156 236.242188 L 256.660156 342.792969 L 85.179688 342.792969 Z M 85.179688 236.242188 "/></g></g><g clip-rule="nonzero" clip-path="url(#3ac1b3817c)"><g clip-rule="nonzero" clip-path="url(#37a9a15d0f)"><g clip-rule="nonzero" clip-path="url(#d15b7e7819)"><path style=" stroke:none;fill-rule:nonzero;fill:#7db1ff;fill-opacity:1;" d="M 201.027344 110.164062 L 196.152344 103.839844 C 194.070312 101.132812 190.535156 99.949219 187.242188 100.855469 L 162.429688 107.828125 L 145.367188 98.308594 C 140.289062 95.464844 134.066406 95.710938 129.195312 98.914062 L 119.839844 105.074219 C 114.675781 108.46875 109.878906 112.339844 105.480469 116.691406 L 100.769531 121.3125 C 98.015625 124.015625 96.695312 127.859375 97.203125 131.695312 L 98.550781 142.105469 C 100.316406 155.546875 106.566406 168.007812 116.304688 177.429688 C 118.964844 180.011719 123.128906 180.273438 126.070312 178.003906 L 197.949219 122.617188 C 199.703125 121.261719 201.050781 119.496094 201.878906 117.429688 L 201.976562 117.179688 C 202.941406 114.835938 202.5625 112.15625 201.027344 110.164062 Z M 201.027344 110.164062 "/></g></g></g><g clip-rule="nonzero" clip-path="url(#b2b35fa2e5)"><g clip-rule="nonzero" clip-path="url(#4f266413ca)"><g clip-rule="nonzero" clip-path="url(#533ded9514)"><path style=" stroke:none;fill-rule:nonzero;fill:#384868;fill-opacity:1;" d="M 194.808594 122.585938 C 195.316406 123.242188 195.75 123.9375 196.117188 124.679688 C 196.484375 125.417969 196.773438 126.1875 196.988281 126.984375 C 197.207031 127.78125 197.339844 128.59375 197.398438 129.417969 C 197.453125 130.242188 197.425781 131.0625 197.320312 131.882812 C 197.214844 132.699219 197.03125 133.5 196.765625 134.285156 C 196.503906 135.066406 196.164062 135.816406 195.753906 136.53125 C 195.339844 137.246094 194.863281 137.917969 194.320312 138.539062 C 193.777344 139.160156 193.179688 139.722656 192.523438 140.226562 C 191.871094 140.730469 191.171875 141.167969 190.433594 141.535156 C 189.695312 141.902344 188.925781 142.191406 188.128906 142.40625 C 187.332031 142.621094 186.519531 142.757812 185.695312 142.8125 C 184.871094 142.871094 184.050781 142.84375 183.230469 142.738281 C 182.414062 142.632812 181.613281 142.445312 180.828125 142.183594 C 180.046875 141.917969 179.296875 141.582031 178.582031 141.171875 C 177.863281 140.757812 177.195312 140.28125 176.574219 139.738281 C 175.953125 139.195312 175.390625 138.597656 174.882812 137.941406 C 174.378906 137.289062 173.945312 136.589844 173.578125 135.851562 C 173.210938 135.109375 172.921875 134.34375 172.703125 133.542969 C 172.488281 132.746094 172.355469 131.9375 172.296875 131.113281 C 172.242188 130.289062 172.269531 129.46875 172.375 128.648438 C 172.480469 127.828125 172.664062 127.027344 172.929688 126.246094 C 173.191406 125.464844 173.53125 124.714844 173.941406 124 C 174.355469 123.28125 174.832031 122.613281 175.375 121.992188 C 175.917969 121.367188 176.515625 120.804688 177.171875 120.300781 C 177.824219 119.796875 178.523438 119.363281 179.261719 118.996094 C 180 118.628906 180.769531 118.335938 181.566406 118.121094 C 182.363281 117.90625 183.175781 117.769531 184 117.714844 C 184.824219 117.660156 185.644531 117.683594 186.464844 117.792969 C 187.28125 117.898438 188.082031 118.082031 188.867188 118.347656 C 189.648438 118.609375 190.398438 118.949219 191.113281 119.359375 C 191.832031 119.769531 192.5 120.25 193.121094 120.792969 C 193.742188 121.335938 194.304688 121.933594 194.808594 122.585938 Z M 194.808594 122.585938 "/></g></g></g><g clip-rule="nonzero" clip-path="url(#c87d00a31c)"><g clip-rule="nonzero" clip-path="url(#062f178fda)"><g clip-rule="nonzero" clip-path="url(#dcd689de4e)"><path style=" stroke:none;fill-rule:nonzero;fill:#ffffff;fill-opacity:1;" d="M 190.003906 126.292969 C 190.261719 126.632812 190.488281 126.992188 190.679688 127.375 C 190.867188 127.757812 191.019531 128.15625 191.128906 128.566406 C 191.242188 128.980469 191.3125 129.398438 191.339844 129.824219 C 191.371094 130.253906 191.355469 130.675781 191.300781 131.101562 C 191.246094 131.523438 191.152344 131.9375 191.015625 132.34375 C 190.878906 132.75 190.703125 133.136719 190.492188 133.507812 C 190.277344 133.878906 190.03125 134.222656 189.75 134.546875 C 189.46875 134.867188 189.160156 135.160156 188.820312 135.417969 C 188.480469 135.679688 188.121094 135.90625 187.738281 136.097656 C 187.355469 136.285156 186.957031 136.4375 186.542969 136.546875 C 186.132812 136.660156 185.710938 136.730469 185.285156 136.757812 C 184.859375 136.785156 184.433594 136.773438 184.011719 136.71875 C 183.585938 136.664062 183.171875 136.566406 182.769531 136.433594 C 182.363281 136.296875 181.976562 136.121094 181.605469 135.90625 C 181.234375 135.695312 180.886719 135.449219 180.566406 135.167969 C 180.246094 134.886719 179.953125 134.574219 179.691406 134.238281 C 179.429688 133.898438 179.207031 133.539062 179.015625 133.15625 C 178.828125 132.773438 178.675781 132.375 178.566406 131.960938 C 178.453125 131.550781 178.382812 131.128906 178.355469 130.703125 C 178.324219 130.277344 178.339844 129.851562 178.394531 129.429688 C 178.449219 129.003906 178.542969 128.589844 178.679688 128.183594 C 178.816406 127.78125 178.992188 127.394531 179.203125 127.023438 C 179.417969 126.652344 179.664062 126.304688 179.945312 125.984375 C 180.226562 125.660156 180.535156 125.371094 180.875 125.109375 C 181.214844 124.847656 181.574219 124.625 181.957031 124.433594 C 182.339844 124.242188 182.738281 124.09375 183.148438 123.980469 C 183.5625 123.871094 183.980469 123.800781 184.410156 123.769531 C 184.835938 123.742188 185.261719 123.753906 185.683594 123.8125 C 186.109375 123.867188 186.523438 123.960938 186.925781 124.097656 C 187.332031 124.234375 187.71875 124.410156 188.089844 124.621094 C 188.460938 124.835938 188.808594 125.082031 189.128906 125.363281 C 189.449219 125.644531 189.742188 125.953125 190.003906 126.292969 Z M 190.003906 126.292969 "/></g></g></g><g clip-rule="nonzero" clip-path="url(#eb29431d42)"><g clip-rule="nonzero" clip-path="url(#fb5517fd08)"><g clip-rule="nonzero" clip-path="url(#878b71e673)"><path style=" stroke:none;fill-rule:nonzero;fill:#384868;fill-opacity:1;" d="M 145.214844 160.804688 C 145.71875 161.457031 146.15625 162.15625 146.523438 162.894531 C 146.886719 163.636719 147.179688 164.402344 147.394531 165.203125 C 147.609375 166 147.746094 166.808594 147.800781 167.632812 C 147.855469 168.457031 147.832031 169.277344 147.726562 170.097656 C 147.621094 170.917969 147.433594 171.71875 147.171875 172.5 C 146.90625 173.28125 146.570312 174.03125 146.15625 174.75 C 145.746094 175.464844 145.269531 176.132812 144.726562 176.753906 C 144.183594 177.378906 143.582031 177.941406 142.929688 178.445312 C 142.273438 178.949219 141.578125 179.382812 140.839844 179.75 C 140.097656 180.117188 139.328125 180.410156 138.53125 180.625 C 137.734375 180.839844 136.925781 180.976562 136.101562 181.03125 C 135.277344 181.085938 134.453125 181.0625 133.636719 180.953125 C 132.816406 180.847656 132.015625 180.664062 131.234375 180.398438 C 130.449219 180.136719 129.703125 179.796875 128.984375 179.386719 C 128.269531 178.976562 127.601562 178.496094 126.976562 177.953125 C 126.355469 177.410156 125.792969 176.8125 125.289062 176.160156 C 124.785156 175.503906 124.351562 174.808594 123.984375 174.066406 C 123.617188 173.328125 123.324219 172.558594 123.109375 171.761719 C 122.894531 170.964844 122.757812 170.152344 122.703125 169.328125 C 122.648438 168.503906 122.671875 167.683594 122.777344 166.863281 C 122.886719 166.046875 123.070312 165.246094 123.332031 164.460938 C 123.597656 163.679688 123.933594 162.929688 124.347656 162.214844 C 124.757812 161.5 125.234375 160.828125 125.777344 160.207031 C 126.320312 159.585938 126.921875 159.023438 127.574219 158.519531 C 128.230469 158.015625 128.925781 157.578125 129.667969 157.210938 C 130.40625 156.84375 131.175781 156.554688 131.972656 156.339844 C 132.769531 156.125 133.578125 155.988281 134.402344 155.933594 C 135.226562 155.875 136.050781 155.902344 136.867188 156.007812 C 137.6875 156.113281 138.488281 156.300781 139.269531 156.5625 C 140.054688 156.828125 140.804688 157.164062 141.519531 157.574219 C 142.234375 157.988281 142.902344 158.464844 143.527344 159.007812 C 144.148438 159.550781 144.710938 160.148438 145.214844 160.804688 Z M 145.214844 160.804688 "/></g></g></g><g clip-rule="nonzero" clip-path="url(#25750db1f7)"><g clip-rule="nonzero" clip-path="url(#f02df60bc2)"><g clip-rule="nonzero" clip-path="url(#27d3291439)"><path style=" stroke:none;fill-rule:nonzero;fill:#ffffff;fill-opacity:1;" d="M 140.40625 164.507812 C 140.667969 164.847656 140.894531 165.207031 141.082031 165.589844 C 141.273438 165.972656 141.421875 166.371094 141.535156 166.785156 C 141.648438 167.195312 141.714844 167.617188 141.746094 168.042969 C 141.773438 168.46875 141.761719 168.894531 141.707031 169.316406 C 141.652344 169.742188 141.554688 170.15625 141.417969 170.5625 C 141.28125 170.964844 141.109375 171.351562 140.894531 171.722656 C 140.683594 172.09375 140.433594 172.441406 140.152344 172.761719 C 139.871094 173.085938 139.5625 173.375 139.226562 173.636719 C 138.886719 173.898438 138.527344 174.121094 138.144531 174.3125 C 137.757812 174.503906 137.363281 174.652344 136.949219 174.765625 C 136.535156 174.875 136.117188 174.945312 135.691406 174.976562 C 135.265625 175.003906 134.839844 174.992188 134.414062 174.9375 C 133.992188 174.878906 133.578125 174.785156 133.171875 174.648438 C 132.769531 174.511719 132.378906 174.335938 132.007812 174.125 C 131.640625 173.910156 131.292969 173.664062 130.972656 173.382812 C 130.648438 173.101562 130.359375 172.792969 130.097656 172.453125 C 129.835938 172.117188 129.609375 171.753906 129.421875 171.371094 C 129.230469 170.988281 129.082031 170.589844 128.96875 170.179688 C 128.859375 169.765625 128.789062 169.347656 128.757812 168.921875 C 128.730469 168.492188 128.742188 168.070312 128.796875 167.644531 C 128.851562 167.222656 128.949219 166.808594 129.085938 166.402344 C 129.222656 165.996094 129.398438 165.609375 129.609375 165.238281 C 129.824219 164.867188 130.070312 164.523438 130.351562 164.199219 C 130.632812 163.878906 130.941406 163.585938 131.28125 163.328125 C 131.617188 163.066406 131.980469 162.839844 132.363281 162.648438 C 132.746094 162.460938 133.140625 162.308594 133.554688 162.199219 C 133.96875 162.085938 134.386719 162.015625 134.8125 161.988281 C 135.238281 161.960938 135.664062 161.972656 136.089844 162.027344 C 136.511719 162.082031 136.925781 162.179688 137.332031 162.316406 C 137.738281 162.449219 138.125 162.625 138.496094 162.839844 C 138.867188 163.050781 139.210938 163.296875 139.535156 163.578125 C 139.855469 163.859375 140.148438 164.171875 140.40625 164.507812 Z M 140.40625 164.507812 "/></g></g></g><g clip-rule="nonzero" clip-path="url(#3aa01b9269)"><g clip-rule="nonzero" clip-path="url(#fd2e536b63)"><g clip-rule="nonzero" clip-path="url(#751cac6814)"><path style=" stroke:none;fill-rule:nonzero;fill:#d4f5ff;fill-opacity:1;" d="M 154.6875 111.695312 L 140.6875 102.671875 C 138.121094 101.007812 134.808594 101.054688 132.28125 102.769531 L 120.195312 110.945312 C 119.027344 111.730469 118.71875 113.335938 119.523438 114.492188 C 119.550781 114.53125 119.59375 114.585938 119.621094 114.621094 L 131.695312 130.289062 C 132.636719 131.511719 134.386719 131.738281 135.609375 130.796875 L 154.878906 115.949219 C 156.03125 115.0625 156.242188 113.410156 155.355469 112.257812 C 155.15625 112.035156 154.949219 111.84375 154.6875 111.695312 Z M 154.6875 111.695312 "/></g></g></g><g clip-rule="nonzero" clip-path="url(#ba23424320)"><g clip-rule="nonzero" clip-path="url(#153370d97e)"><g clip-rule="nonzero" clip-path="url(#e88ad7ce77)"><path style=" stroke:none;fill-rule:nonzero;fill:#d4f5ff;fill-opacity:1;" d="M 114.292969 119.164062 L 125.105469 135.046875 C 125.976562 136.328125 125.652344 138.0625 124.371094 138.933594 C 124.296875 138.988281 124.226562 139.011719 124.15625 139.070312 L 112.128906 145.773438 C 110.640625 146.597656 108.769531 146.058594 107.941406 144.570312 C 107.835938 144.359375 107.71875 144.128906 107.664062 143.910156 L 103.789062 129.882812 C 103.183594 127.695312 103.816406 125.34375 105.441406 123.742188 L 110.390625 118.824219 C 111.390625 117.816406 113.003906 117.828125 114.007812 118.832031 C 114.097656 118.910156 114.195312 119.035156 114.292969 119.164062 Z M 114.292969 119.164062 "/></g></g></g><g clip-rule="nonzero" clip-path="url(#cb6dcf4325)"><g clip-rule="nonzero" clip-path="url(#195060439e)"><g clip-rule="nonzero" clip-path="url(#5f3e184bd4)"><path style=" stroke:none;fill-rule:nonzero;fill:#ffd664;fill-opacity:1;" d="M 199.742188 110.574219 L 196.945312 112.726562 C 194.894531 114.304688 191.984375 113.929688 190.40625 111.878906 C 188.828125 109.832031 189.207031 106.917969 191.253906 105.34375 L 194.050781 103.1875 C 195.09375 102.382812 196.597656 102.5625 197.414062 103.625 L 200.191406 107.222656 C 200.992188 108.265625 200.800781 109.753906 199.742188 110.574219 Z M 199.742188 110.574219 "/></g></g></g><g clip-rule="nonzero" clip-path="url(#f5ae16e0a6)"><g clip-rule="nonzero" clip-path="url(#2331736ee0)"><g clip-rule="nonzero" clip-path="url(#70dde8246f)"><path style=" stroke:none;fill-rule:nonzero;fill:#384868;fill-opacity:1;" d="M 198.207031 119.472656 L 203.511719 115.386719 C 204.484375 114.609375 205.878906 114.757812 206.679688 115.683594 C 207.476562 116.644531 207.324219 118.070312 206.371094 118.835938 C 206.351562 118.851562 206.335938 118.863281 206.316406 118.878906 L 200.941406 123.019531 C 199.953125 123.78125 198.546875 123.582031 197.800781 122.613281 C 197.054688 121.644531 197.238281 120.21875 198.207031 119.472656 Z M 198.207031 119.472656 "/></g></g></g><g clip-rule="nonzero" clip-path="url(#7125dbb980)"><g clip-rule="nonzero" clip-path="url(#da11eed88a)"><g clip-rule="nonzero" clip-path="url(#59373c9ea1)"><path style=" stroke:none;fill-rule:nonzero;fill:#384868;fill-opacity:1;" d="M 148.960938 157.421875 L 171.152344 140.320312 C 172.140625 139.5625 173.546875 139.757812 174.292969 140.726562 C 175.054688 141.714844 174.855469 143.121094 173.886719 143.867188 L 151.695312 160.96875 C 150.707031 161.730469 149.300781 161.53125 148.554688 160.5625 C 147.808594 159.59375 147.992188 158.167969 148.960938 157.421875 Z M 148.960938 157.421875 "/></g></g></g><g clip-rule="nonzero" clip-path="url(#de5a277010)"><g clip-rule="nonzero" clip-path="url(#02daa90a87)"><g clip-rule="nonzero" clip-path="url(#969c372e3d)"><path style=" stroke:none;fill-rule:nonzero;fill:#384868;fill-opacity:1;" d="M 119.195312 183.5625 C 120.03125 184.347656 121.308594 184.414062 122.222656 183.707031 L 124.339844 182.074219 C 125.328125 181.3125 125.507812 179.921875 124.75 178.933594 C 123.988281 177.949219 122.578125 177.78125 121.609375 178.527344 L 119.414062 180.21875 C 118.429688 180.980469 118.261719 182.390625 119.007812 183.359375 C 119.066406 183.429688 119.121094 183.503906 119.195312 183.5625 Z M 119.195312 183.5625 "/></g></g></g><path style="fill:none;stroke-width:14;stroke-linecap:butt;stroke-linejoin:miter;stroke:#160e0c;stroke-opacity:1;stroke-miterlimit:4;" d="M -0.00127906 6.999287 L 418.810055 6.999287 " transform="matrix(0,-0.782236,0.782236,0,337.903811,350.709937)"/><path style="fill:none;stroke-width:14;stroke-linecap:butt;stroke-linejoin:miter;stroke:#160e0c;stroke-opacity:1;stroke-miterlimit:4;" d="M 0.00214369 6.999429 L 418.808484 6.999429 " transform="matrix(0,-0.782236,0.782236,0,26.134168,351.458708)"/><path style="fill:none;stroke-width:14;stroke-linecap:butt;stroke-linejoin:miter;stroke:#160e0c;stroke-opacity:1;stroke-miterlimit:4;" d="M -0.00124658 7.002464 L 412.817652 7.002464 " transform="matrix(0.782236,0,0,0.782236,26.028319,23.217732)"/><path style="fill:none;stroke-width:14;stroke-linecap:butt;stroke-linejoin:miter;stroke:#160e0c;stroke-opacity:1;stroke-miterlimit:4;" d="M -0.000530095 7.000241 L 412.818368 7.000241 " transform="matrix(0.782236,-0.000000000000000194,0.000000000000000194,0.782236,26.051196,340.942127)"/></g></svg>