<svg xmlns="http://www.w3.org/2000/svg" xmlns:xlink="http://www.w3.org/1999/xlink" width="500" zoomAndPan="magnify" viewBox="0 0 375 374.999991" height="500" preserveAspectRatio="xMidYMid meet" version="1.2"><defs><clipPath id="5a4df2ec57"><path d="M 0 0 L 375 0 L 375 374.984375 L 0 374.984375 Z M 0 0 "/></clipPath><clipPath id="afd4970f52"><path d="M 375 4.5 L 375 370.484375 C 375 372.972656 372.984375 374.984375 370.5 374.984375 L 4.5 374.984375 C 2.015625 374.984375 0 372.972656 0 370.484375 L 0 4.5 C 0 2.015625 2.015625 0 4.5 0 L 370.5 0 C 372.984375 0 375 2.015625 375 4.5 Z M 375 4.5 "/></clipPath><clipPath id="357547c275"><path d="M 0 0.0078125 L 375 0.0078125 L 375 375 L 0 375 Z M 0 0.0078125 "/></clipPath><clipPath id="d4716e9b37"><path d="M 375 4.507812 L 375 370.492188 C 375 372.976562 372.984375 374.992188 370.5 374.992188 L 4.5 374.992188 C 2.015625 374.992188 0 372.976562 0 370.492188 L 0 4.507812 C 0 2.023438 2.015625 0.0078125 4.5 0.0078125 L 370.5 0.0078125 C 372.984375 0.0078125 375 2.023438 375 4.507812 Z M 375 4.507812 "/></clipPath><clipPath id="86460d02ca"><path d="M 0 115.878906 L 270 115.878906 L 270 370.9375 L 0 370.9375 Z M 0 115.878906 "/></clipPath><clipPath id="19886038d0"><path d="M 132.601562 115.878906 L 269.75 370.9375 L -4.546875 370.9375 Z M 132.601562 115.878906 "/></clipPath><clipPath id="4691dc1e46"><path d="M 0 115.878906 L 269.925781 115.878906 L 269.925781 370.878906 L 0 370.878906 Z M 0 115.878906 "/></clipPath><clipPath id="a714ee58ec"><path d="M 132.566406 115.878906 L 269.679688 370.875 L -4.546875 370.875 Z M 132.566406 115.878906 "/></clipPath><clipPath id="1a33ef3977"><path d="M 135.667969 187.5 L 375 187.5 L 375 370.9375 L 135.667969 370.9375 Z M 135.667969 187.5 "/></clipPath><clipPath id="43215ab2ed"><path d="M 255.332031 187.5 L 375 370.9375 L 135.667969 370.9375 Z M 255.332031 187.5 "/></clipPath><clipPath id="b84cdc7c28"><path d="M 135.667969 187.5 L 374.917969 187.5 L 374.917969 371 L 135.667969 371 Z M 135.667969 187.5 "/></clipPath><clipPath id="753ba1afb8"><path d="M 255.292969 187.5 L 374.914062 370.871094 L 135.667969 370.871094 Z M 255.292969 187.5 "/></clipPath><clipPath id="58567f56ee"><path d="M 255.285156 49.902344 L 303.890625 49.902344 L 303.890625 104 L 255.285156 104 Z M 255.285156 49.902344 "/></clipPath><clipPath id="e19cf15c21"><path d="M 279.589844 49.902344 C 266.164062 49.902344 255.285156 62 255.285156 76.921875 C 255.285156 91.847656 266.164062 103.945312 279.589844 103.945312 C 293.011719 103.945312 303.890625 91.847656 303.890625 76.921875 C 303.890625 62 293.011719 49.902344 279.589844 49.902344 Z M 279.589844 49.902344 "/></clipPath><clipPath id="a02090c37b"><path d="M 255.285156 49.902344 L 304 49.902344 L 304 103.898438 L 255.285156 103.898438 Z M 255.285156 49.902344 "/></clipPath><clipPath id="44916453c2"><path d="M 279.566406 49.902344 C 266.15625 49.902344 255.285156 61.988281 255.285156 76.902344 C 255.285156 91.8125 266.15625 103.898438 279.566406 103.898438 C 292.976562 103.898438 303.851562 91.8125 303.851562 76.902344 C 303.851562 61.988281 292.976562 49.902344 279.566406 49.902344 Z M 279.566406 49.902344 "/></clipPath><clipPath id="f615ae0dc4"><path d="M 115.699219 233.316406 L 259.523438 233.316406 L 259.523438 363.417969 L 115.699219 363.417969 Z M 115.699219 233.316406 "/></clipPath><clipPath id="f0b4e62d90"><path d="M 187.5 233.316406 L 259.300781 363.417969 L 115.699219 363.417969 Z M 187.5 233.316406 "/></clipPath></defs><g id="3391e357d3"><g clip-rule="nonzero" clip-path="url(#5a4df2ec57)"><g clip-rule="nonzero" clip-path="url(#afd4970f52)"><path style=" stroke:none;fill-rule:nonzero;fill:#fbf6f7;fill-opacity:1;" d="M 0 0 L 374.984375 0 L 374.984375 374.984375 L 0 374.984375 Z M 0 0 "/></g></g><g clip-rule="nonzero" clip-path="url(#357547c275)"><g clip-rule="nonzero" clip-path="url(#d4716e9b37)"><path style="fill:none;stroke-width:22;stroke-linecap:butt;stroke-linejoin:miter;stroke:#000000;stroke-opacity:1;stroke-miterlimit:4;" d="M 499.999995 6.001234 L 499.999995 493.980401 C 499.999995 497.292901 497.312495 499.980401 493.999995 499.980401 L 5.999994 499.980401 C 2.687494 499.980401 -0.000006 497.292901 -0.000006 493.980401 L -0.000006 6.001234 C -0.000006 2.688734 2.687494 0.00123368 5.999994 0.00123368 L 493.999995 0.00123368 C 497.312495 0.00123368 499.999995 2.688734 499.999995 6.001234 Z M 499.999995 6.001234 " transform="matrix(0.75,0,0,0.75,0.0000045,0.00688724)"/></g></g><g clip-rule="nonzero" clip-path="url(#86460d02ca)"><g clip-rule="nonzero" clip-path="url(#19886038d0)"><path style=" stroke:none;fill-rule:nonzero;fill:#97b08a;fill-opacity:1;" d="M -4.546875 115.878906 L 269.441406 115.878906 L 269.441406 370.9375 L -4.546875 370.9375 Z M -4.546875 115.878906 "/></g></g><g clip-rule="nonzero" clip-path="url(#4691dc1e46)"><g clip-rule="nonzero" clip-path="url(#a714ee58ec)"><path style="fill:none;stroke-width:20;stroke-linecap:butt;stroke-linejoin:miter;stroke:#000000;stroke-opacity:1;stroke-miterlimit:4;" d="M 182.861323 -0.00154027 L 365.721051 340.071398 L 0.00159445 340.071398 Z M 182.861323 -0.00154027 " transform="matrix(0.749828,0,0,0.749828,-4.548071,115.880061)"/></g></g><g clip-rule="nonzero" clip-path="url(#1a33ef3977)"><g clip-rule="nonzero" clip-path="url(#43215ab2ed)"><path style=" stroke:none;fill-rule:nonzero;fill:#97b08a;fill-opacity:1;" d="M 135.667969 187.5 L 374.996094 187.5 L 374.996094 370.9375 L 135.667969 370.9375 Z M 135.667969 187.5 "/></g></g><g clip-rule="nonzero" clip-path="url(#b84cdc7c28)"><g clip-rule="nonzero" clip-path="url(#753ba1afb8)"><path style="fill:none;stroke-width:20;stroke-linecap:butt;stroke-linejoin:miter;stroke:#000000;stroke-opacity:1;stroke-miterlimit:4;" d="M 159.552219 0.0000164223 L 319.101702 244.578646 L -0.00247397 244.578646 Z M 159.552219 0.0000164223 " transform="matrix(0.749743,0,0,0.749743,135.669824,187.499988)"/></g></g><g clip-rule="nonzero" clip-path="url(#58567f56ee)"><g clip-rule="nonzero" clip-path="url(#e19cf15c21)"><path style=" stroke:none;fill-rule:nonzero;fill:#f9f9da;fill-opacity:1;" d="M 255.285156 49.902344 L 303.890625 49.902344 L 303.890625 104.015625 L 255.285156 104.015625 Z M 255.285156 49.902344 "/></g></g><g clip-rule="nonzero" clip-path="url(#a02090c37b)"><g clip-rule="nonzero" clip-path="url(#44916453c2)"><path style="fill:none;stroke-width:20;stroke-linecap:butt;stroke-linejoin:miter;stroke:#000000;stroke-opacity:1;stroke-miterlimit:4;" d="M 32.397593 0.00234903 C 14.505744 0.00234903 0.00151527 16.127424 0.00151527 36.025787 C 0.00151527 55.918938 14.505744 72.044013 32.397593 72.044013 C 50.289442 72.044013 64.798882 55.918938 64.798882 36.025787 C 64.798882 16.127424 50.289442 0.00234903 32.397593 0.00234903 Z M 32.397593 0.00234903 " transform="matrix(0.749512,0,0,0.749512,255.284021,49.900583)"/></g></g><g clip-rule="nonzero" clip-path="url(#f615ae0dc4)"><g clip-rule="nonzero" clip-path="url(#f0b4e62d90)"><path style=" stroke:none;fill-rule:nonzero;fill:#97b08a;fill-opacity:1;" d="M 115.699219 233.316406 L 259.523438 233.316406 L 259.523438 363.417969 L 115.699219 363.417969 Z M 115.699219 233.316406 "/></g></g></g></svg>